M48
; DRILL file KiCad 10.0.7 date 2026-10-08T20:19:53
; FORMAT={-:-/ absolute / metric / decimal}
; #@! TF.CreationDate,2026-10-08T20:19:53-04:00
; #@! TF.GenerationSoftware,Kicad,Pcbnew,10.0.7
; #@! TF.FileFunction,Plated,1,2,PTH
FMAT,2
METRIC
; #@! TA.AperFunction,Plated,PTH,ComponentDrill
T1C0.700
; #@! TA.AperFunction,Plated,PTH,ComponentDrill
T2C0.800
; #@! TA.AperFunction,Plated,PTH,ComponentDrill
T3C0.889
; #@! TA.AperFunction,Plated,PTH,ComponentDrill
T4C1.000
; #@! TA.AperFunction,Plated,PTH,ComponentDrill
T5C1.500
%
G90
G05
T1
X97.88Y-55.0
X105.5Y-55.0
T2
X98.093Y-64.0
X100.632Y-64.0
X103.172Y-64.0
X105.712Y-64.0
T3
X124.0Y-71.38
X124.0Y-73.92
X124.0Y-76.46
X124.0Y-79.0
X124.0Y-81.54
X124.0Y-84.08
X124.0Y-86.62
X139.24Y-71.38
X139.24Y-73.92
X139.24Y-76.46
X139.24Y-79.0
X139.24Y-81.54
X139.24Y-84.08
X139.24Y-86.62
T4
X99.19Y-94.508
X101.73Y-94.508
X104.27Y-94.508
X106.81Y-94.508
X119.569Y-102.34
X119.569Y-104.88
X119.569Y-107.42
X119.569Y-109.96
X119.569Y-112.5
X119.569Y-115.04
X119.569Y-117.58
X119.569Y-120.12
T5
X74.15Y-79.54
X77.15Y-104.54
X80.5Y-77.0
X83.5Y-102.0
M30
